<svg width="48" height="32" viewBox="0 0 48 32" fill="none" xmlns="http://www.w3.org/2000/svg">
<path d="M29.5499 19.1143L24 8.00004C20.6277 2.70773 17.2615 5.79491 16 8.00004L18.4616 11.0533L18.1033 12.5939L24 24L29.5499 19.1143Z" fill="#0F161E"/>
<path d="M20.5538 17.0769L23.9384 24C27.3108 29.2923 30.6769 26.2051 31.9385 24L29.0498 21.7836L29.7802 19.5614L26.5846 13.1692L20.5538 17.0769Z" fill="#0F161E"/>
<path d="M12 8.00003L0 32.0001H8L20 8.00004C21.2615 6.00004 22.5846 6.09234 24 8.00003C18.88 -1.32921 13.8667 4.11285 12 8.00003Z" fill="#0F161E"/>
<path d="M35.9385 24L47.9385 -7.62939e-06L39.9385 -8.32878e-06L27.9385 24C26.677 26 25.3539 25.9077 23.9385 24C29.0585 33.3292 34.0718 27.8872 35.9385 24Z" fill="#0F161E"/>
</svg>
